Coordinates
version=1
nRows=16
nColumns=36
inDegrees=yes

Units are S.I. units (second, meters, Newtons, ...)
If the header above contains a line with 'inDegrees', this indicates whether rotational values are in degrees (yes) or radians (no).

endheader
time	pelvis_tilt	pelvis_list	pelvis_rotation	pelvis_tx	pelvis_ty	pelvis_tz	hip_flexion_r	hip_adduction_r	hip_rotation_r	knee_angle_r	knee_angle_r_beta	ankle_angle_r	subtalar_angle_r	mtp_angle_r	hip_flexion_l	hip_adduction_l	hip_rotation_l	knee_angle_l	knee_angle_l_beta	ankle_angle_l	subtalar_angle_l	mtp_angle_l	lumbar_extension	lumbar_bending	lumbar_rotation	arm_flex_r	arm_add_r	arm_rot_r	elbow_flex_r	pro_sup_r	arm_flex_l	arm_add_l	arm_rot_l	elbow_flex_l	pro_sup_l
     44.48333330	      5.23582910	      2.52007398	   -172.50914782	      0.61118475	      1.07934300	      0.84542070	     31.70243227	     -4.41507369	     -9.21885080	     38.34061898	      0.66917004	     -7.32120436	     -4.33189206	     -7.49999987	     28.79349479	     -4.32201058	     -5.05597687	     28.54531024	      0.49820965	    -11.62655873	     -1.15776710	     -7.49999987	    -12.48814527	      3.18817645	      0.18059915	     14.45168125	     -8.46554764	     -0.44490718	     22.52002666	     83.61095148	     16.80753102	     -3.25068986	     -0.71498793	     21.05670388	     87.82960574
     44.50000000	      5.10182437	      2.98361620	   -172.27540554	      0.61373908	      1.07863543	      0.84638829	     30.79093051	     -4.41104423	     -8.70858875	     35.85435761	      0.62577659	     -6.27767760	     -2.82350925	     -7.49999987	     28.63364427	     -5.34355016	     -4.48190484	     27.78466887	      0.48493395	     -9.76966056	     -0.96209596	     -7.49999987	    -12.89466911	      3.69946067	      0.27475027	     14.44349693	     -7.97106869	     -0.31827207	     22.68471267	     83.78757099	     17.24313614	     -2.61898663	     -0.08534202	     21.58622512	     87.71470498
     44.51666670	      4.82590793	      3.68767387	   -172.01866673	      0.61544449	      1.07788150	      0.84732744	     29.56340666	     -4.08434557	     -8.33795698	     33.32202354	      0.58157902	     -5.15581141	     -1.23113777	     -7.49999987	     28.32118331	     -6.68446349	     -4.22897151	     26.86278340	      0.46884402	     -7.77742051	     -0.76608988	     -7.49999987	    -13.37800511	      4.51061443	      0.46784917	     14.54887656	     -7.60350772	     -0.40758842	     22.66036052	     83.95201808	     17.66377029	     -1.92303427	      0.52736901	     21.97563110	     87.57997134
     44.53333330	      4.24205069	      4.26914743	   -171.81052202	      0.61651838	      1.07897357	      0.84740590	     27.89135083	     -3.60650905	     -7.80986144	     30.75152863	      0.53671542	     -4.46416744	     -0.02722162	     -7.49999987	     27.59744477	     -8.05823479	     -4.21964236	     25.84017589	      0.45099615	     -5.79672613	     -0.62529568	     -7.49999987	    -14.28832846	      5.16432813	      0.74179183	     14.77416994	     -7.10130404	     -0.59706232	     22.54010238	     82.91275519	     18.18409287	     -1.31448780	      1.42770677	     22.17848900	     85.75986002
     44.55000000	      3.69444117	      4.76086952	   -171.66743541	      0.61719616	      1.08027350	      0.84707902	     26.07191522	     -2.95862510	     -6.98245707	     28.08079295	      0.49010229	     -3.80980667	      0.81012880	     -7.49999987	     26.75256773	     -9.34545794	     -4.11943376	     24.86391827	      0.43395724	     -3.67277468	     -0.35547168	     -7.49999987	    -15.18946089	      5.69435974	      1.08016706	     14.91709209	     -6.63497241	     -0.79228837	     22.36599251	     83.35145139	     18.49112343	     -0.80673035	      1.75804525	     22.47814377	     85.49308896
     44.56666670	      3.47912808	      5.05558473	   -171.66812545	      0.61743696	      1.07995047	      0.84671469	     24.20430620	     -2.28119688	     -5.67923607	     25.24560787	      0.44061898	     -2.73285009	      1.35896894	     -7.49999987	     25.90079242	    -10.30325089	     -3.84662045	     23.80118587	      0.41540906	     -1.95516759	      0.35037784	     -7.49999987	    -15.59012427	      5.95492103	      1.31992588	     14.98300961	     -6.07281294	     -0.87636669	     21.99244587	     83.57728575	     18.52925676	     -0.43728132	      1.78347309	     22.61633763	     85.31330587
     44.58333330	      3.84601886	      4.99678928	   -171.56575338	      0.61772679	      1.07921979	      0.84655558	     23.08137261	     -2.11075581	     -4.32190962	     23.10039769	      0.40317800	     -1.57741181	      1.54302915	     -7.49999987	     25.48517770	    -10.54588224	     -2.90297743	     22.66855186	      0.39564087	     -0.13150776	      0.84486382	     -7.49999987	    -15.37489040	      5.66884336	      1.27297633	     14.80319691	     -5.49064054	     -0.83776189	     21.84833161	     83.65399129	     18.42637589	     -0.26187459	      1.77228115	     22.63765833	     85.24002315
     44.60000000	      3.04309210	      5.11408098	   -171.65876036	      0.61818261	      1.07960971	      0.84612663	     20.86711026	     -1.52429698	     -2.93635004	     21.32040488	      0.37211126	     -0.70624598	      1.34876473	     -7.49999987	     23.76100192	    -11.30710196	     -2.57821315	     21.66021502	      0.37804207	      1.83901947	      3.06179125	     -7.49999987	    -16.71657995	      5.79099178	      1.26560644	     15.35942000	     -4.88489165	     -0.78565492	     21.27306355	     83.93120407	     18.54220843	     -0.25026135	      1.45826454	     22.77485400	     84.86091568
     44.61666670	      3.42669030	      4.99441729	   -171.61885071	      0.61821671	      1.07860765	      0.84598094	     20.33549118	     -1.53212026	     -1.81216930	     20.54223482	      0.35852963	      0.55784899	      1.12623996	     -7.49999987	     23.66072701	    -11.43666531	     -1.32610465	     21.44022012	      0.37420243	      3.54961551	      3.05251526	     -7.49999987	    -16.83952696	      5.40960810	      1.27000975	     15.31526887	     -4.42131636	     -0.70918069	     21.22381399	     83.98089218	     18.65195126	     -0.26529780	      1.40813654	     22.83650349	     84.79898776
     44.63333330	      2.62138643	      4.97887729	   -171.56618021	      0.61641034	      1.07788436	      0.84617514	     18.57111422	     -1.22643078	     -0.74612590	     19.84600177	      0.34637807	      1.86353533	      0.18795388	     -7.49999987	     22.31883040	    -11.97187974	     -0.63777297	     21.74278933	      0.37948326	      5.55256088	      3.76469549	     -7.49999987	    -18.31427105	      5.46335643	      0.99244148	     15.95008095	     -3.85829504	     -0.44390420	     20.81862089	     84.34579843	     18.73906480	     -0.41795117	      0.96194090	     23.19906185	     84.20960203
     44.65000000	      2.56169737	      4.97294055	   -171.73557380	      0.61208594	      1.07434672	      0.84618860	     17.64901051	     -1.04832945	      0.13866119	     19.40769790	      0.33872823	      3.08819168	     -0.31455796	     -7.49999987	     21.59200997	    -12.34213049	      0.12038773	     22.23629806	      0.38809661	      6.29737004	      3.68937720	     -7.49999987	    -18.63824938	      5.45314836	      0.61199379	     16.27463270	     -3.45869897	      0.80653912	     20.26506433	     84.61675175	     18.50802047	     -0.65518581	      0.65956754	     23.40451611	     82.32071128
     44.66666670	      2.64003081	      5.08728094	   -171.76419781	      0.60760434	      1.06874094	      0.84533422	     17.03534587	     -0.81418864	      0.68796773	     19.40024976	      0.33859823	      4.25358652	     -0.35647923	     -7.49999987	     21.22919217	    -12.72498214	      1.05426158	     23.05092742	      0.40231458	      6.96416497	      3.50797385	     -7.49999987	    -18.63654427	      5.57979763	      0.47851262	     16.04426516	     -3.12750697	      0.79453005	     20.33681350	     84.56815973	     18.38184183	     -0.76435386	      0.68735468	     23.37888958	     82.20639385
     44.68333330	      3.16201624	      5.59289137	   -171.39405403	      0.60540373	      1.06270230	      0.84443947	     17.50573339	     -0.47111305	      0.29250517	     20.44479828	      0.35682904	      5.72566245	      0.06007975	     -7.49999987	     22.25323952	    -13.21070043	      2.83117569	     24.91086877	      0.43477668	      7.90726033	      2.98474760	     -7.49999987	    -18.00729895	      6.23751561	     -0.27814091	     16.00481415	     -2.75981678	      1.23775189	     19.88393629	     84.21233291	     18.25311214	     -1.09668659	      1.57398453	     22.99011957	     80.96719081
     44.70000000	      2.75693779	      5.76590224	   -171.38765368	      0.60465172	      1.05937021	      0.84386497	     17.70849897	     -0.23780032	      0.38087249	     22.76437611	      0.39731332	      6.88830184	      0.00548466	     -7.49999987	     22.67189706	    -13.63131653	      4.15439153	     27.60996571	      0.48188481	      9.37606164	      2.27206008	     -7.49999987	    -18.96023160	      6.41535087	     -0.32754623	     16.15756719	     -2.56039740	      1.22153783	     20.17893058	     84.23703788	     18.55836952	     -1.32935676	      1.58781398	     23.08121441	     80.95366227
     44.71666670	      4.01985446	      6.72335892	   -170.77880394	      0.60139443	      1.05216026	      0.84646281	     20.45746774	     -0.02851532	     -0.91814691	     26.52904927	      0.46301926	      9.34865790	      1.19733735	     -7.49999987	     26.12838985	    -14.01766357	      7.02114958	     32.04877504	      0.55935665	     11.68844171	      0.70517507	     -7.49999987	    -17.88792143	      7.65820676	     -1.02245687	     15.72999613	     -2.68944415	      1.01316762	     21.36971325	     82.72302022	     18.33262544	     -1.52655477	      2.30244529	     23.46187280	     79.23774219
     44.73333330	      4.56520081	      7.12543012	   -170.52581593	      0.59362111	      1.04216155	      0.85009411	     22.59606717	     -0.20031002	     -1.24262741	     30.86044432	      0.53861636	     11.22360767	      1.50727317	     -7.49999987	     28.45686918	    -14.02351718	      9.17097429	     36.75751917	      0.64153973	     14.63744935	     -1.13056173	     -7.49999987	    -17.69352464	      8.22152633	     -1.37776694	     15.60817009	     -2.91613137	      0.72277657	     22.32948094	     83.00136693	     18.25142412	     -1.73182611	      2.54074224	     23.79548216	     79.29981260
